<mxfile host="app.diagrams.net" modified="2020-11-29T19:32:16.129Z" agent="5.0 (Windows NT 10.0; Win64; x64) AppleWebKit/537.36 (KHTML, like Gecko) Chrome/87.0.4280.66 Safari/537.36" etag="7Z5-EEdrlC9tNcvt5Cqd" version="13.10.1" type="github">
  <diagram id="C5RBs43oDa-KdzZeNtuy" name="Page-1">
    <mxGraphModel dx="868" dy="425" grid="1" gridSize="10" guides="1" tooltips="1" connect="1" arrows="1" fold="1" page="1" pageScale="1" pageWidth="827" pageHeight="1169" math="0" shadow="0">
      <root>
        <mxCell id="WIyWlLk6GJQsqaUBKTNV-0" />
        <mxCell id="WIyWlLk6GJQsqaUBKTNV-1" parent="WIyWlLk6GJQsqaUBKTNV-0" />
        <mxCell id="koGjO4gcWGi_jtZBAE5D-33" value="Person" style="swimlane;fontStyle=2;align=center;verticalAlign=top;childLayout=stackLayout;horizontal=1;startSize=26;horizontalStack=0;resizeParent=1;resizeLast=0;collapsible=1;marginBottom=0;rounded=0;shadow=0;strokeWidth=1;" vertex="1" parent="WIyWlLk6GJQsqaUBKTNV-1">
          <mxGeometry x="40" y="40" width="290" height="330" as="geometry">
            <mxRectangle x="230" y="140" width="160" height="26" as="alternateBounds" />
          </mxGeometry>
        </mxCell>
        <mxCell id="koGjO4gcWGi_jtZBAE5D-34" value="- name : String" style="text;align=left;verticalAlign=top;spacingLeft=4;spacingRight=4;overflow=hidden;rotatable=0;points=[[0,0.5],[1,0.5]];portConstraint=eastwest;" vertex="1" parent="koGjO4gcWGi_jtZBAE5D-33">
          <mxGeometry y="26" width="290" height="26" as="geometry" />
        </mxCell>
        <mxCell id="koGjO4gcWGi_jtZBAE5D-35" value="- address: String" style="text;align=left;verticalAlign=top;spacingLeft=4;spacingRight=4;overflow=hidden;rotatable=0;points=[[0,0.5],[1,0.5]];portConstraint=eastwest;" vertex="1" parent="koGjO4gcWGi_jtZBAE5D-33">
          <mxGeometry y="52" width="290" height="26" as="geometry" />
        </mxCell>
        <mxCell id="koGjO4gcWGi_jtZBAE5D-36" value="- noPhone : int" style="text;align=left;verticalAlign=top;spacingLeft=4;spacingRight=4;overflow=hidden;rotatable=0;points=[[0,0.5],[1,0.5]];portConstraint=eastwest;rounded=0;shadow=0;html=0;" vertex="1" parent="koGjO4gcWGi_jtZBAE5D-33">
          <mxGeometry y="78" width="290" height="26" as="geometry" />
        </mxCell>
        <mxCell id="koGjO4gcWGi_jtZBAE5D-37" value="" style="line;html=1;strokeWidth=1;align=left;verticalAlign=middle;spacingTop=-1;spacingLeft=3;spacingRight=3;rotatable=0;labelPosition=right;points=[];portConstraint=eastwest;" vertex="1" parent="koGjO4gcWGi_jtZBAE5D-33">
          <mxGeometry y="104" width="290" height="8" as="geometry" />
        </mxCell>
        <mxCell id="koGjO4gcWGi_jtZBAE5D-38" value="+ Person()" style="text;align=left;verticalAlign=top;spacingLeft=4;spacingRight=4;overflow=hidden;rotatable=0;points=[[0,0.5],[1,0.5]];portConstraint=eastwest;" vertex="1" parent="koGjO4gcWGi_jtZBAE5D-33">
          <mxGeometry y="112" width="290" height="28" as="geometry" />
        </mxCell>
        <mxCell id="koGjO4gcWGi_jtZBAE5D-39" value="+ Person(name:String, address:String, noPhone:int)" style="text;align=left;verticalAlign=top;spacingLeft=4;spacingRight=4;overflow=hidden;rotatable=0;points=[[0,0.5],[1,0.5]];portConstraint=eastwest;" vertex="1" parent="koGjO4gcWGi_jtZBAE5D-33">
          <mxGeometry y="140" width="290" height="28" as="geometry" />
        </mxCell>
        <mxCell id="koGjO4gcWGi_jtZBAE5D-40" value="+ setName(name:String) : void" style="text;align=left;verticalAlign=top;spacingLeft=4;spacingRight=4;overflow=hidden;rotatable=0;points=[[0,0.5],[1,0.5]];portConstraint=eastwest;" vertex="1" parent="koGjO4gcWGi_jtZBAE5D-33">
          <mxGeometry y="168" width="290" height="28" as="geometry" />
        </mxCell>
        <mxCell id="koGjO4gcWGi_jtZBAE5D-41" value="+ getName() : String" style="text;align=left;verticalAlign=top;spacingLeft=4;spacingRight=4;overflow=hidden;rotatable=0;points=[[0,0.5],[1,0.5]];portConstraint=eastwest;" vertex="1" parent="koGjO4gcWGi_jtZBAE5D-33">
          <mxGeometry y="196" width="290" height="26" as="geometry" />
        </mxCell>
        <mxCell id="koGjO4gcWGi_jtZBAE5D-42" value="+ setAddress(address:String) : void" style="text;align=left;verticalAlign=top;spacingLeft=4;spacingRight=4;overflow=hidden;rotatable=0;points=[[0,0.5],[1,0.5]];portConstraint=eastwest;" vertex="1" parent="koGjO4gcWGi_jtZBAE5D-33">
          <mxGeometry y="222" width="290" height="28" as="geometry" />
        </mxCell>
        <mxCell id="koGjO4gcWGi_jtZBAE5D-43" value="+ getAddress() : String" style="text;align=left;verticalAlign=top;spacingLeft=4;spacingRight=4;overflow=hidden;rotatable=0;points=[[0,0.5],[1,0.5]];portConstraint=eastwest;" vertex="1" parent="koGjO4gcWGi_jtZBAE5D-33">
          <mxGeometry y="250" width="290" height="26" as="geometry" />
        </mxCell>
        <mxCell id="koGjO4gcWGi_jtZBAE5D-44" value="+ setNoPhone(noPhone:int) : void" style="text;align=left;verticalAlign=top;spacingLeft=4;spacingRight=4;overflow=hidden;rotatable=0;points=[[0,0.5],[1,0.5]];portConstraint=eastwest;" vertex="1" parent="koGjO4gcWGi_jtZBAE5D-33">
          <mxGeometry y="276" width="290" height="28" as="geometry" />
        </mxCell>
        <mxCell id="koGjO4gcWGi_jtZBAE5D-45" value="+ getNoPhone() : int" style="text;align=left;verticalAlign=top;spacingLeft=4;spacingRight=4;overflow=hidden;rotatable=0;points=[[0,0.5],[1,0.5]];portConstraint=eastwest;" vertex="1" parent="koGjO4gcWGi_jtZBAE5D-33">
          <mxGeometry y="304" width="290" height="26" as="geometry" />
        </mxCell>
        <mxCell id="koGjO4gcWGi_jtZBAE5D-46" value="Customer" style="swimlane;fontStyle=2;align=center;verticalAlign=top;childLayout=stackLayout;horizontal=1;startSize=26;horizontalStack=0;resizeParent=1;resizeLast=0;collapsible=1;marginBottom=0;rounded=0;shadow=0;strokeWidth=1;" vertex="1" parent="WIyWlLk6GJQsqaUBKTNV-1">
          <mxGeometry x="430" y="40" width="380" height="224" as="geometry">
            <mxRectangle x="230" y="140" width="160" height="26" as="alternateBounds" />
          </mxGeometry>
        </mxCell>
        <mxCell id="koGjO4gcWGi_jtZBAE5D-47" value="+ custNo: String" style="text;align=left;verticalAlign=top;spacingLeft=4;spacingRight=4;overflow=hidden;rotatable=0;points=[[0,0.5],[1,0.5]];portConstraint=eastwest;" vertex="1" parent="koGjO4gcWGi_jtZBAE5D-46">
          <mxGeometry y="26" width="380" height="26" as="geometry" />
        </mxCell>
        <mxCell id="koGjO4gcWGi_jtZBAE5D-48" value="" style="line;html=1;strokeWidth=1;align=left;verticalAlign=middle;spacingTop=-1;spacingLeft=3;spacingRight=3;rotatable=0;labelPosition=right;points=[];portConstraint=eastwest;" vertex="1" parent="koGjO4gcWGi_jtZBAE5D-46">
          <mxGeometry y="52" width="380" height="8" as="geometry" />
        </mxCell>
        <mxCell id="koGjO4gcWGi_jtZBAE5D-49" value="+ Customer()" style="text;align=left;verticalAlign=top;spacingLeft=4;spacingRight=4;overflow=hidden;rotatable=0;points=[[0,0.5],[1,0.5]];portConstraint=eastwest;" vertex="1" parent="koGjO4gcWGi_jtZBAE5D-46">
          <mxGeometry y="60" width="380" height="28" as="geometry" />
        </mxCell>
        <mxCell id="koGjO4gcWGi_jtZBAE5D-50" value="+ Customer(name:String, address:String, noPhone:int, custNo:String)" style="text;align=left;verticalAlign=top;spacingLeft=4;spacingRight=4;overflow=hidden;rotatable=0;points=[[0,0.5],[1,0.5]];portConstraint=eastwest;" vertex="1" parent="koGjO4gcWGi_jtZBAE5D-46">
          <mxGeometry y="88" width="380" height="28" as="geometry" />
        </mxCell>
        <mxCell id="koGjO4gcWGi_jtZBAE5D-51" value="+ setCustNo(custNo:String) : void" style="text;align=left;verticalAlign=top;spacingLeft=4;spacingRight=4;overflow=hidden;rotatable=0;points=[[0,0.5],[1,0.5]];portConstraint=eastwest;" vertex="1" parent="koGjO4gcWGi_jtZBAE5D-46">
          <mxGeometry y="116" width="380" height="28" as="geometry" />
        </mxCell>
        <mxCell id="koGjO4gcWGi_jtZBAE5D-52" value="+ getCustNo() : String" style="text;align=left;verticalAlign=top;spacingLeft=4;spacingRight=4;overflow=hidden;rotatable=0;points=[[0,0.5],[1,0.5]];portConstraint=eastwest;" vertex="1" parent="koGjO4gcWGi_jtZBAE5D-46">
          <mxGeometry y="144" width="380" height="26" as="geometry" />
        </mxCell>
        <mxCell id="koGjO4gcWGi_jtZBAE5D-53" value="+ setEmail(email:boolean) : void" style="text;align=left;verticalAlign=top;spacingLeft=4;spacingRight=4;overflow=hidden;rotatable=0;points=[[0,0.5],[1,0.5]];portConstraint=eastwest;" vertex="1" parent="koGjO4gcWGi_jtZBAE5D-46">
          <mxGeometry y="170" width="380" height="28" as="geometry" />
        </mxCell>
        <mxCell id="koGjO4gcWGi_jtZBAE5D-54" value="+ getEmail() : boolean" style="text;align=left;verticalAlign=top;spacingLeft=4;spacingRight=4;overflow=hidden;rotatable=0;points=[[0,0.5],[1,0.5]];portConstraint=eastwest;" vertex="1" parent="koGjO4gcWGi_jtZBAE5D-46">
          <mxGeometry y="198" width="380" height="26" as="geometry" />
        </mxCell>
        <mxCell id="koGjO4gcWGi_jtZBAE5D-55" value="PrefferedCustomer" style="swimlane;fontStyle=2;align=center;verticalAlign=top;childLayout=stackLayout;horizontal=1;startSize=26;horizontalStack=0;resizeParent=1;resizeLast=0;collapsible=1;marginBottom=0;rounded=0;shadow=0;strokeWidth=1;" vertex="1" parent="WIyWlLk6GJQsqaUBKTNV-1">
          <mxGeometry x="430" y="373" width="380" height="222" as="geometry">
            <mxRectangle x="230" y="140" width="160" height="26" as="alternateBounds" />
          </mxGeometry>
        </mxCell>
        <mxCell id="koGjO4gcWGi_jtZBAE5D-56" value="+ custPurchase: int" style="text;align=left;verticalAlign=top;spacingLeft=4;spacingRight=4;overflow=hidden;rotatable=0;points=[[0,0.5],[1,0.5]];portConstraint=eastwest;" vertex="1" parent="koGjO4gcWGi_jtZBAE5D-55">
          <mxGeometry y="26" width="380" height="26" as="geometry" />
        </mxCell>
        <mxCell id="koGjO4gcWGi_jtZBAE5D-57" value="+ discount: int" style="text;align=left;verticalAlign=top;spacingLeft=4;spacingRight=4;overflow=hidden;rotatable=0;points=[[0,0.5],[1,0.5]];portConstraint=eastwest;" vertex="1" parent="koGjO4gcWGi_jtZBAE5D-55">
          <mxGeometry y="52" width="380" height="26" as="geometry" />
        </mxCell>
        <mxCell id="koGjO4gcWGi_jtZBAE5D-58" value="" style="line;html=1;strokeWidth=1;align=left;verticalAlign=middle;spacingTop=-1;spacingLeft=3;spacingRight=3;rotatable=0;labelPosition=right;points=[];portConstraint=eastwest;" vertex="1" parent="koGjO4gcWGi_jtZBAE5D-55">
          <mxGeometry y="78" width="380" height="8" as="geometry" />
        </mxCell>
        <mxCell id="koGjO4gcWGi_jtZBAE5D-59" value="+ PrefferedCustomer()" style="text;align=left;verticalAlign=top;spacingLeft=4;spacingRight=4;overflow=hidden;rotatable=0;points=[[0,0.5],[1,0.5]];portConstraint=eastwest;" vertex="1" parent="koGjO4gcWGi_jtZBAE5D-55">
          <mxGeometry y="86" width="380" height="28" as="geometry" />
        </mxCell>
        <mxCell id="koGjO4gcWGi_jtZBAE5D-60" value="+ PrefferedCustomer(custPurchase:int, discount:int)" style="text;align=left;verticalAlign=top;spacingLeft=4;spacingRight=4;overflow=hidden;rotatable=0;points=[[0,0.5],[1,0.5]];portConstraint=eastwest;" vertex="1" parent="koGjO4gcWGi_jtZBAE5D-55">
          <mxGeometry y="114" width="380" height="28" as="geometry" />
        </mxCell>
        <mxCell id="koGjO4gcWGi_jtZBAE5D-61" value="+ setPurchase(custPurchase:int) : void" style="text;align=left;verticalAlign=top;spacingLeft=4;spacingRight=4;overflow=hidden;rotatable=0;points=[[0,0.5],[1,0.5]];portConstraint=eastwest;" vertex="1" parent="koGjO4gcWGi_jtZBAE5D-55">
          <mxGeometry y="142" width="380" height="28" as="geometry" />
        </mxCell>
        <mxCell id="koGjO4gcWGi_jtZBAE5D-62" value="+ getPurchase() : String" style="text;align=left;verticalAlign=top;spacingLeft=4;spacingRight=4;overflow=hidden;rotatable=0;points=[[0,0.5],[1,0.5]];portConstraint=eastwest;" vertex="1" parent="koGjO4gcWGi_jtZBAE5D-55">
          <mxGeometry y="170" width="380" height="26" as="geometry" />
        </mxCell>
        <mxCell id="koGjO4gcWGi_jtZBAE5D-63" value="+ getDiscount() : String" style="text;align=left;verticalAlign=top;spacingLeft=4;spacingRight=4;overflow=hidden;rotatable=0;points=[[0,0.5],[1,0.5]];portConstraint=eastwest;" vertex="1" parent="koGjO4gcWGi_jtZBAE5D-55">
          <mxGeometry y="196" width="380" height="26" as="geometry" />
        </mxCell>
        <mxCell id="koGjO4gcWGi_jtZBAE5D-64" value="Extends" style="endArrow=block;endSize=16;endFill=0;html=1;entryX=0.5;entryY=1;entryDx=0;entryDy=0;" edge="1" parent="WIyWlLk6GJQsqaUBKTNV-1" source="koGjO4gcWGi_jtZBAE5D-55" target="koGjO4gcWGi_jtZBAE5D-46">
          <mxGeometry width="160" relative="1" as="geometry">
            <mxPoint x="160" y="470" as="sourcePoint" />
            <mxPoint x="320" y="470" as="targetPoint" />
          </mxGeometry>
        </mxCell>
        <mxCell id="koGjO4gcWGi_jtZBAE5D-65" value="Extends" style="endArrow=block;endSize=16;endFill=0;html=1;exitX=0.003;exitY=0.143;exitDx=0;exitDy=0;exitPerimeter=0;entryX=1;entryY=0.5;entryDx=0;entryDy=0;" edge="1" parent="WIyWlLk6GJQsqaUBKTNV-1" source="koGjO4gcWGi_jtZBAE5D-50" target="koGjO4gcWGi_jtZBAE5D-36">
          <mxGeometry width="160" relative="1" as="geometry">
            <mxPoint x="430" y="141" as="sourcePoint" />
            <mxPoint x="340" y="141" as="targetPoint" />
          </mxGeometry>
        </mxCell>
      </root>
    </mxGraphModel>
  </diagram>
</mxfile>
